<svg xmlns="http://www.w3.org/2000/svg" width="600" height="760" viewBox="0 0 600 760" role="img" aria-labelledby="title desc">
  <title id="title">Clinic QR Placeholder</title>
  <desc id="desc">Static placeholder QR image for manual GCash and Maya payments.</desc>
  <rect width="600" height="760" rx="36" fill="#ffffff"/>
  <rect x="24" y="24" width="552" height="712" rx="28" fill="#ecfeff" stroke="#bae6fd" stroke-width="4"/>
  <text x="300" y="92" text-anchor="middle" font-family="Arial, sans-serif" font-size="24" font-weight="700" fill="#0f172a">Carait Clinic</text>
  <text x="300" y="126" text-anchor="middle" font-family="Arial, sans-serif" font-size="18" fill="#0369a1">Replace with your real QR PH image</text>
  <rect x="110" y="170" width="380" height="380" rx="24" fill="#ffffff" stroke="#0f172a" stroke-width="10"/>
  <g fill="#0f172a">
    <rect x="145" y="205" width="90" height="90"/>
    <rect x="163" y="223" width="54" height="54" fill="#ffffff"/>
    <rect x="180" y="240" width="20" height="20"/>
    <rect x="365" y="205" width="90" height="90"/>
    <rect x="383" y="223" width="54" height="54" fill="#ffffff"/>
    <rect x="400" y="240" width="20" height="20"/>
    <rect x="145" y="425" width="90" height="90"/>
    <rect x="163" y="443" width="54" height="54" fill="#ffffff"/>
    <rect x="180" y="460" width="20" height="20"/>
    <rect x="275" y="205" width="20" height="20"/>
    <rect x="315" y="205" width="20" height="20"/>
    <rect x="255" y="225" width="20" height="20"/>
    <rect x="295" y="225" width="20" height="20"/>
    <rect x="335" y="225" width="20" height="20"/>
    <rect x="255" y="265" width="20" height="20"/>
    <rect x="295" y="265" width="20" height="20"/>
    <rect x="335" y="265" width="20" height="20"/>
    <rect x="255" y="305" width="20" height="20"/>
    <rect x="275" y="325" width="20" height="20"/>
    <rect x="315" y="325" width="20" height="20"/>
    <rect x="355" y="305" width="20" height="20"/>
    <rect x="255" y="365" width="20" height="20"/>
    <rect x="295" y="365" width="20" height="20"/>
    <rect x="335" y="365" width="20" height="20"/>
    <rect x="255" y="405" width="20" height="20"/>
    <rect x="295" y="405" width="20" height="20"/>
    <rect x="335" y="405" width="20" height="20"/>
    <rect x="275" y="445" width="20" height="20"/>
    <rect x="315" y="445" width="20" height="20"/>
    <rect x="355" y="445" width="20" height="20"/>
    <rect x="255" y="485" width="20" height="20"/>
    <rect x="295" y="485" width="20" height="20"/>
    <rect x="335" y="485" width="20" height="20"/>
    <rect x="375" y="345" width="20" height="20"/>
    <rect x="395" y="365" width="20" height="20"/>
    <rect x="415" y="325" width="20" height="20"/>
    <rect x="435" y="385" width="20" height="20"/>
  </g>
  <text x="300" y="610" text-anchor="middle" font-family="Arial, sans-serif" font-size="18" fill="#0f172a">Manual verification flow</text>
  <text x="300" y="642" text-anchor="middle" font-family="Arial, sans-serif" font-size="16" fill="#475569">1. Patient scans and pays</text>
  <text x="300" y="670" text-anchor="middle" font-family="Arial, sans-serif" font-size="16" fill="#475569">2. Staff checks confirmation screen</text>
  <text x="300" y="698" text-anchor="middle" font-family="Arial, sans-serif" font-size="16" fill="#475569">3. Staff marks the bill as paid</text>
</svg>
